<svg id="Calque_1" data-name="Calque 1" xmlns="http://www.w3.org/2000/svg" xmlns:xlink="http://www.w3.org/1999/xlink" viewBox="0 0 1920 1080"><defs><style>.cls-1{fill:none;}.cls-2{fill:#3eb0c8;}.cls-3,.cls-4{opacity:0.38;}.cls-14,.cls-15,.cls-16,.cls-18,.cls-3,.cls-4,.cls-5,.cls-6,.cls-7,.cls-8{isolation:isolate;}.cls-4,.cls-5,.cls-7,.cls-8{font-size:339.15px;font-family:ArialMT, Arial;}.cls-5,.cls-7,.cls-8{letter-spacing:0.01em;}.cls-7{fill:#b1dd26;}.cls-8,.cls-9{fill:#34b1e4;}.cls-10{fill:#d7df23;}.cls-11{fill:#f9f98f;}.cls-12{fill:#f7fcd5;}.cls-13{clip-path:url(#clip-path);}.cls-14,.cls-15,.cls-16{opacity:0.47;}.cls-14{fill:url(#Dégradé_sans_nom_2);}.cls-15{fill:url(#Dégradé_sans_nom_3);}.cls-16{fill:url(#Dégradé_sans_nom_4);}.cls-17{clip-path:url(#clip-path-2);}.cls-18{opacity:0.75;fill:url(#Dégradé_sans_nom_5);}.cls-19{fill:url(#Dégradé_sans_nom);}</style><clipPath id="clip-path"><path class="cls-1" d="M1109.5,342.82C600.27,338.63,56.58,377.56,58.17,402.35c1.55,23.77,380.57-11.73,922.09,7.61,580.23,20.71,921.44,79.81,921.69,50.12S1618.76,347,1109.5,342.82Z"/></clipPath><radialGradient id="Dégradé_sans_nom_2" cx="-20004.82" cy="-2642.76" r="1273.25" gradientTransform="matrix(0, 0.06, 0.36, -0.03, 1437.92, 1538.54)" gradientUnits="userSpaceOnUse"><stop offset="0" stop-color="#7f3b00"/><stop offset="0.12" stop-color="#8b4d18"/><stop offset="0.37" stop-color="#a97c54"/><stop offset="0.74" stop-color="#dac6b5"/><stop offset="1" stop-color="#fff"/></radialGradient><radialGradient id="Dégradé_sans_nom_3" cx="-16448.29" cy="234.98" r="1273.29" gradientTransform="matrix(-0.01, 0.08, 0.66, 0.11, 1050.81, 1394.74)" xlink:href="#Dégradé_sans_nom_2"/><radialGradient id="Dégradé_sans_nom_4" cx="-18044.45" cy="97.86" r="1273.36" gradientTransform="matrix(0, 0.08, 0.84, -0.01, 867.69, 1541.97)" xlink:href="#Dégradé_sans_nom_2"/><clipPath id="clip-path-2"><path class="cls-1" d="M410.88,400.51l-18.29,35.1C302.9,564.49,228.5,540.86,228.5,540.86c-9-1.55-11.62-12.56-3-15.73h0c65.59-28.25,69.6-80,66.49-123.25Z"/></clipPath><radialGradient id="Dégradé_sans_nom_5" cx="-4251.92" cy="11373.26" r="946.19" gradientTransform="matrix(0.23, -0.01, 0, -0.09, 1396.1, 1443.27)" gradientUnits="userSpaceOnUse"><stop offset="0" stop-color="#005b6c"/><stop offset="0.38" stop-color="#34b1e4"/><stop offset="1" stop-color="#fff"/></radialGradient><linearGradient id="Dégradé_sans_nom" x1="702.24" y1="-367.72" x2="764.44" y2="-368.37" gradientTransform="matrix(-0.03, 1, 1, 0.03, 1324.73, -287.38)" gradientUnits="userSpaceOnUse"><stop offset="0" stop-color="#34b1e4"/><stop offset="0.73" stop-color="#34a4e4"/></linearGradient></defs><title>Plan de travail 1</title><path class="cls-2" d="M410.88,400.51l-18.29,35.1C302.9,564.49,228.5,540.86,228.5,540.86c-9-1.55-11.62-12.56-3-15.73h0c65.59-28.25,69.6-80,66.49-123.25Z"/><g class="cls-3"><text class="cls-4" transform="translate(122.07 308.83)">EC</text><text class="cls-5" transform="translate(593.2 308.83)"><tspan xml:space="preserve">   </tspan></text><text class="cls-5" transform="translate(890.13 308.83)">S</text><text class="cls-5" transform="translate(1121.08 308.83)">URF</text></g><g class="cls-6"><text class="cls-7" transform="translate(102.3 304.07)"><tspan xml:space="preserve">EC   </tspan></text><text class="cls-8" transform="translate(874.76 304.07)">SURF</text></g><path class="cls-9" d="M883.56,182.55A144.32,144.32,0,1,1,739.24,38.23,144.31,144.31,0,0,1,883.56,182.55Z"/><path class="cls-10" d="M748.41,276c4.44-7.87-.51-24.1-.51-28s-2.3-20.17-7.72-22.11-27.67,6.35-27.67,6.35-32,9.34-36.08,15.76-18.4-9-19.37-14.9-17.54-21-18-23-26.6-20.17-29.55-20.67a45.27,45.27,0,0,0-14.18,5.3,144.3,144.3,0,0,0,125.92,131c.46-8.47-.8-16.38,0-26.59,1-13.27,2.45-7.21,12.3-12.3S744,283.86,748.41,276Z"/><path class="cls-10" d="M775.79,288.48c-2,4.47-1.8,8.23,3.61,9.89a21.33,21.33,0,0,0,11.33-1c3.32-.79,7.79,0,10.54-2.23,8.19-7.22,1.48-13.61-5.42-18.51-2.16-1.56-4.4-3-6.6-4.51C779.87,265.46,778.07,283.36,775.79,288.48Z"/><path class="cls-10" d="M814.33,59.27c-8.23,12-15.12,27.56-8.84,41.09,12.3,26.56,7.5,13,15.26,54.12,10.32,55-27.64,22.51-27.06,59.53.54,37.92,13.06,34,25.87,33.48s12-25.25,45.46-20.2a52.37,52.37,0,0,1,10.53,2.63A144.31,144.31,0,0,0,814.22,59.27Z"/><path class="cls-10" d="M645,94.73c11.69,7.22,14.15,6.86,28.87,28.87s-5.34,26.91-10.54,45.71-1.84,16.38,4.95,22.62,46.54,19.95,43.83,5.12,19.27-31.89,19.56-49.21S745,138,761.33,131.1s9.77-57.33-9.17-41.45c-4.29,3.6-2.92-29.12-12.66-35.36-4.12-2.67-20.89-7.22-27.46-13.5A143.41,143.41,0,0,0,627.36,92C632.3,93.54,638.62,90.76,645,94.73Z"/><path class="cls-10" d="M809,124.68a14.72,14.72,0,0,0-12.23-5.49,16.38,16.38,0,0,0-4.76.8,19.16,19.16,0,0,0-12,16.27c-.72,6,2.49,27.06,3,29a39.3,39.3,0,0,1,.5,11.3c-.28,2.13,5.67-.8,6.32-1.12a21.35,21.35,0,0,0,9.74-7.58,110.45,110.45,0,0,0,4.84-13.56C808.19,145.39,816,134.06,809,124.68Z"/><path class="cls-11" d="M833.52,189.55a8.13,8.13,0,0,0-8.66,1.23,22.59,22.59,0,0,0-5.63,21.39,14.18,14.18,0,0,0,7.22,9.82,24.56,24.56,0,0,0,4,1.55,31.19,31.19,0,0,0,18.47-.26c5.56-2.05,8.34-7.5,11.65-12.05,2.42-3.32,5-6.53,7.62-9.67s9.85-6.06,6.89-10.82c-6.24-9.89-16.2-2.31-25.26-.47A39.34,39.34,0,0,1,833.52,189.55Z"/><path class="cls-11" d="M830.38,70.67a42.86,42.86,0,0,0-5,12c-1.73,7.22,4,16.38,10.57,18.94,5.6,2.13,3.61,7.22,2.71,12a98,98,0,0,0-4,20.64c0,7.76.43,11.55,9.17,11.87,3.6,0,7.68.54,9.12-3.61a29.13,29.13,0,0,0,0-14.43,14.51,14.51,0,0,1,1-9.09,32.69,32.69,0,0,0,2.45-10.1c0-2.71-2.92-6.89-4.18-10.57a36,36,0,0,1-1.19-7.22A144.08,144.08,0,0,0,830.38,70.67Z"/><path class="cls-11" d="M722.36,250.06c-4.37-.18-8.33,2.3-12.38,3.6-2.63.83-5.26,1.59-7.9,2.35s-4.4,1.37-6.56,2.13c-9.56,3.35-18.8,8.48-23.46,18-1.8,3.61,11.41,4.29,12.85,4.4a93.34,93.34,0,0,0,19.91-2.45c6.93-1.05,14-1.27,20.86-2.57a14,14,0,0,0,12-10.82C739.89,255.86,730.15,250.31,722.36,250.06Z"/><path class="cls-11" d="M627.94,206.76c-2.13-.18-4.08,2-6,3.1l-3.86,2c-1.08.58-2.13,1.19-3.21,1.84a25.29,25.29,0,0,0-11.4,15.45c-.86,3.13,5.56,3.6,6.24,3.82a26.6,26.6,0,0,0,9.71-2.09c3.39-.94,6.82-1.12,10.17-2.24s5.05-3.93,5.85-9.24C636.49,211.78,631.73,207,627.94,206.76Z"/><path class="cls-11" d="M674.08,59.09c1-.91,3-2.06,3.9-3,5-5.12-.54-4-2.81-2.81a32.12,32.12,0,0,0-12.31,10.25,21.56,21.56,0,0,1-5.8,4.87,76.81,76.81,0,0,0-7.47,6,61.38,61.38,0,0,0-4.8,7.72c-2.17,5,.83,6.06,4.47,5.48s11.33-5.48,17.57-10.32a31.38,31.38,0,0,0,3.36-3c4-4.08,5.63-7.69,3.32-7.47A21.69,21.69,0,0,0,668,68.25c-3,1.19-1-1-1.15-1.62S672.71,60.17,674.08,59.09Z"/><path class="cls-11" d="M709,85.14c-1.4-.37-3.6-2.24-4.94-2.17-7.21.51-2.45,12.12,0,14.79,4.33,4.59,9.49,9.74,16,4.87,2.6-1.94,5.31,1.09,7.55,2.31,1.08.58,8.37,4.48,9.52,3.61a38.31,38.31,0,0,0,8.84-7.86c5-7.58,3.61-18.26.65-26.27s-11.91-15-19.74-18.47a9.79,9.79,0,0,0-4.47-.83,8.32,8.32,0,0,0-7.43,11.18,57,57,0,0,0,4.9,10.5c3,4.58,0,5.23-.32,7.22C718.9,86.9,710.78,85.6,709,85.14Z"/><path class="cls-12" d="M1117.83,343.54c-513.31-4.26-1061.29,35-1059.7,60,1.55,23.92,383.6-11.84,929.42,7.65,584.85,20.85,928.76,80.42,929,50.51S1631.1,347.72,1117.83,343.54Z"/><g class="cls-13"><path class="cls-14" d="M222.4,408.73c-251.91,18-458.64-1.94-461.82-44.63S-41,272.24,211,254.24s458.68,2,461.82,44.63S474.31,390.73,222.4,408.73Z"/><path class="cls-15" d="M1445.11,399.28C981.45,323.51,612.42,219.17,620.94,166.06s391.25-34.81,854.91,40.95S2308.53,387.09,2300,440.2,1908.77,474.94,1445.11,399.28Z"/><path class="cls-16" d="M867.15,379.91C274.39,389.29-207,353.32-208,299.52s478.56-105,1071.35-114.44S1937.49,211.7,1938.5,265.5,1459.9,370.53,867.15,379.91Z"/></g><g class="cls-17"><path class="cls-18" d="M565.49,382.18c1.44,47.88-94,90.2-213.16,94.24S135.45,445.14,134,397.33s93.81-90.2,213.13-94.24S564,334.3,565.49,382.18Z"/></g><path class="cls-19" d="M1698.93,465.2c-134.51-18-402-63-766.12-75.77C588.65,377,310.26,402.6,170.12,412.67c134.94-1,412.43-12.27,763.56.25C1304.87,426.2,1570.38,456.86,1698.93,465.2Z"/></svg>