<svg id="Layer_1" data-name="Layer 1" xmlns="http://www.w3.org/2000/svg" viewBox="0 0 450 450"><defs><style>.cls-1{fill:#34b1e4;}.cls-2{fill:#d7df23;}.cls-3{fill:#f9f98f;}</style></defs><title>Plan de travail 3</title><path class="cls-1" d="M339.43,191.51a102.47,102.47,0,1,1-101.92-103A102.46,102.46,0,0,1,339.43,191.51Z"/><path class="cls-2" d="M243.11,257.36c3.17-5.57-.26-17.12-.24-19.91s-1.58-14.32-5.41-15.73-19.69,4.42-19.69,4.42-22.74,6.51-25.56,11-13-6.46-13.7-10.65-12.37-15-12.71-16.39S147,195.72,144.92,195.35c-1-.16-5.29,1.34-10.09,3.71a102.49,102.49,0,0,0,88.9,93.51c.38-6-.5-11.63.08-18.89.75-9.43,1.77-5.23,8.78-8.68S239.94,262.94,243.11,257.36Z"/><path class="cls-2" d="M262.5,266.33c-1.42,3.16-1.31,5.83,2.51,7,2.8.87,5.32,0,8.05-.66,2.36-.54,5.54.14,7.48-1.52,5.84-5,1.09-9.67-3.77-13.18-1.53-1.11-3.12-2.12-4.66-3.21C265.38,250,264.13,262.69,262.5,266.33Z"/><path class="cls-2" d="M290.73,103.72c-5.9,8.51-10.83,19.52-6.43,29.14,8.63,18.91,5.29,9.24,10.62,38.48,7.13,39.09-19.69,15.89-19.44,42.17.27,26.94,9.17,24.18,18.26,23.87s8.61-17.78,32.35-14.17a37.86,37.86,0,0,1,7.48,1.92,102.5,102.5,0,0,0-42.84-121.41Z"/><path class="cls-2" d="M170.36,128.27c8.27,5.24,10,4.92,20.53,20.7s-3.89,19.1-7.66,32.42-1.37,11.64,3.43,16.08,33,14.36,31.1,3.82,13.81-22.59,14.07-34.89,9.48-6.94,21.11-11.76,7.18-40.68-6.34-29.48c-3.07,2.54-2-20.67-8.86-25.16-2.91-1.89-14.81-5.1-19.44-9.68A101.86,101.86,0,0,0,158,126.39C161.35,127.38,165.85,125.42,170.36,128.27Z"/><path class="cls-2" d="M286.71,150.14a10.35,10.35,0,0,0-8.64-3.93,12.1,12.1,0,0,0-3.41.54c-4.89,1.53-7.92,6.56-8.55,11.52-.53,4.21,1.65,19.22,2,20.62a28,28,0,0,1,.3,8c-.19,1.51,4.05-.57,4.49-.78,2.71-1.29,5.35-2.71,6.95-5.35,1.77-2.93,2.15-6.49,3.49-9.61C286,164.86,291.54,156.83,286.71,150.14Z"/><path class="cls-3" d="M303.86,196.3c-2.47-.59-4.07-.93-6.13.85-4.15,3.56-5.21,10.08-4.1,15.17a10,10,0,0,0,5.11,7,16.11,16.11,0,0,0,2.82,1.13,22.2,22.2,0,0,0,13.12-.1c4-1.44,5.93-5.3,8.31-8.52q2.6-3.51,5.44-6.83c1.78-2.1,7-4.26,4.95-7.62-4.4-7-11.51-1.7-17.87-.43A27.94,27.94,0,0,1,303.86,196.3Z"/><path class="cls-3" d="M302.11,111.89a30,30,0,0,0-3.57,8.5c-1.26,5,2.75,11.65,7.43,13.48,4,1.55,2.61,5.28,1.88,8.59-1.07,4.83-2.87,9.61-2.9,14.61,0,5.54.26,8.21,6.47,8.48,2.6.11,5.44.4,6.49-2.44,1.17-3.14.58-7.12,0-10.34-.51-2.79-.16-3.84.73-6.45.77-2.27,1.77-4.73,1.78-7.15,0-1.93-2.07-4.91-2.93-7.53-.67-2.07-.39-2.2-.82-5.06A102.63,102.63,0,0,0,302.11,111.89Z"/><path class="cls-3" d="M224.71,238.85c-3.11-.15-5.93,1.61-8.8,2.49-1.87.56-3.74,1.09-5.61,1.64-1.57.47-3.14,1-4.69,1.48-6.78,2.35-13.35,5.95-16.7,12.61-1.29,2.56,8.07,3.1,9.1,3.18,4.8.34,9.44-1,14.15-1.66,4.92-.72,9.91-.86,14.81-1.74,4.32-.77,7.42-3.19,8.55-7.56C237.15,243,230.23,239.13,224.71,238.85Z"/><path class="cls-3" d="M157.83,207.75c-1.52-.13-2.89,1.41-4.29,2.17-.91.49-1.83,1-2.74,1.43s-1.53.83-2.29,1.29a17.9,17.9,0,0,0-8.16,10.94c-.63,2.22,3.93,2.67,4.43,2.73,2.34.29,4.6-.85,6.9-1.46s4.83-.76,7.21-1.54c2.11-.68,3.63-2.77,4.19-6.55C163.88,211.34,160.52,208,157.83,207.75Z"/><path class="cls-3" d="M191.15,103c.75-.64,2.11-1.46,2.79-2.14,3.58-3.63-.37-2.88-2-2-2.81,1.51-6.11,3.35-8.76,7.23-1.08,1.58-2.86,2.49-4.15,3.43a52.39,52.39,0,0,0-5.32,4.22,45,45,0,0,0-3.45,5.46c-1.55,3.53.57,4.31,3.17,3.92s8-3.84,12.51-7.25a23.93,23.93,0,0,0,2.39-2.1c2.87-2.88,4-5.45,2.38-5.29a15.78,15.78,0,0,0-3.91,1c-2.11.83-.7-.72-.79-1.15C185.86,107.67,190.17,103.83,191.15,103Z"/><path class="cls-3" d="M215.81,121.69c-1-.26-2.52-1.6-3.48-1.54-5.1.33-1.79,8.59,0,10.49,3.05,3.28,6.68,7,11.3,3.53,1.88-1.39,3.78.79,5.37,1.66.75.41,5.92,3.22,6.73,2.59,2.16-1.67,4.76-3.25,6.31-5.55,3.61-5.35,2.67-12.94.57-18.63-2.18-5.9-8.4-10.68-14-13.21a6.73,6.73,0,0,0-3.17-.6A5.92,5.92,0,0,0,220,108.3a40,40,0,0,0,3.46,7.47c2.08,3.27,0,3.72-.26,5.12C222.86,123,217.1,122,215.81,121.69Z"/></svg>